<?xml version="1.0" encoding="UTF-8"?>
<svg version="1.1" xmlns="http://www.w3.org/2000/svg" width="213" height="237">
<path d="M0 0 C70.29 0 140.58 0 213 0 C213 78.21 213 156.42 213 237 C142.71 237 72.42 237 0 237 C0 158.79 0 80.58 0 0 Z " fill="#FDFCFB" transform="translate(0,0)"/>
<path d="M0 0 C1.98 1.65 3.96 3.3 6 5 C5.67 5.99 5.34 6.98 5 8 C6.42081829 10.89093101 6.42081829 10.89093101 8.5 14 C9.55888181 15.66162991 10.61706598 17.32372368 11.66728878 18.99083996 C12.63842756 20.45490299 13.67387689 21.87689721 14.74440098 23.26994038 C20.34223433 30.98593753 20.97503418 37.10133522 20.79467773 46.4675293 C20.79269868 47.88785198 20.79382039 49.30818181 20.79777527 50.72850037 C20.79976819 54.5506833 20.75887232 58.37130076 20.70975757 62.19312263 C20.66573457 66.19953264 20.66186585 70.20598613 20.65357971 74.21260071 C20.6318996 81.78451103 20.57456206 89.35570639 20.50413328 96.92730314 C20.41095037 107.16940494 20.37341435 117.4117049 20.33261776 127.65412426 C20.2669718 143.76995077 20.12746906 159.8842692 20 176 C-5.74 176 -31.48 176 -58 176 C-56.68 175.01 -55.36 174.02 -54 173 C-52.98198643 172.01834406 -51.9753197 171.02408568 -51 170 C-54.12411151 173.33238562 -56.54138518 174.35620588 -61 174.5625 C-64.7497104 174.40044098 -65.86769404 174.09180414 -69.0625 171.875 C-71.14419243 168.78603703 -71.74277844 166.68684241 -72 163 C-69.03 163 -66.06 163 -63 163 C-63 163.66 -63 164.32 -63 165 C-61.68 165 -60.36 165 -59 165 C-59 141.57 -59 118.14 -59 94 C-56.03 94 -53.06 94 -50 94 C-49.67 113.8 -49.34 133.6 -49 154 C-48.01 154 -47.02 154 -46 154 C-45.67 135.85 -45.34 117.7 -45 99 C-42.03 99 -39.06 99 -36 99 C-35.67 117.15 -35.34 135.3 -35 154 C-34.01 153.67 -33.02 153.34 -32 153 C-31.67 135.51 -31.34 118.02 -31 100 C-28.36 100 -25.72 100 -23 100 C-22.67 118.15 -22.34 136.3 -22 155 C-20.68 155 -19.36 155 -18 155 C-18 136.52 -18 118.04 -18 99 C-15.03 99 -12.06 99 -9 99 C-8.67 117.15 -8.34 135.3 -8 154 C-7.01 154 -6.02 154 -5 154 C-5.00037703 153.38561632 -5.00075405 152.77123264 -5.0011425 152.13823128 C-5.00827487 137.15488685 -4.98222489 122.17199353 -4.9197216 107.1887989 C-4.89028606 99.942847 -4.87187989 92.69718714 -4.87988281 85.45117188 C-4.88683373 79.1318843 -4.87263756 72.81304914 -4.83356392 66.49387252 C-4.81361777 63.15085786 -4.80706772 59.80915237 -4.81957626 56.46600723 C-4.83177897 52.72419393 -4.80660802 48.9843197 -4.77294922 45.24267578 C-4.78517014 44.14718918 -4.79739105 43.05170258 -4.8099823 41.92301941 C-4.68877467 34.41682753 -2.90635264 28.82243402 2 23 C2.66 23 3.32 23 4 23 C4.33 23.33 4.66 23.66 5 24 C4.02546875 22.33710937 4.02546875 22.33710937 3.03125 20.640625 C2.18704907 19.17734339 1.34332382 17.71378728 0.5 16.25 C0.07074219 15.52039062 -0.35851562 14.79078125 -0.80078125 14.0390625 C-1.20683594 13.33007812 -1.61289063 12.62109375 -2.03125 11.890625 C-2.40830078 11.24125977 -2.78535156 10.59189453 -3.17382812 9.92285156 C-4 8 -4 8 -4 4 C-2 1.75 -2 1.75 0 0 Z " fill="#4E4F4E" transform="translate(148,23)"/>
<path d="M0 0 C0 19.47 0 38.94 0 59 C-27.72 59 -55.44 59 -84 59 C-84 45.47 -84 31.94 -84 18 C-67.50469346 14.14144876 -50.9861824 10.44641217 -34.4230957 6.89257812 C-33.6796138 6.73295593 -32.9361319 6.57333374 -32.17012024 6.40887451 C-30.6911153 6.09143586 -29.21202088 5.77441383 -27.73283386 5.45782471 C-23.80921537 4.61530151 -19.89068741 3.75381583 -15.9765625 2.86816406 C-15.15422119 2.6826297 -14.33187988 2.49709534 -13.48461914 2.30593872 C-11.90503709 1.94847887 -10.32606357 1.588316 -8.74780273 1.22506714 C-5.76562523 0.55058947 -3.06845482 0 0 0 Z " fill="#F16432" transform="translate(138,16)"/>
<path d="M0 0 C1.98 1.65 3.96 3.3 6 5 C5.67 5.99 5.34 6.98 5 8 C6.42081829 10.89093101 6.42081829 10.89093101 8.5 14 C9.55888181 15.66162991 10.61706598 17.32372368 11.66728878 18.99083996 C12.63842756 20.45490299 13.67387689 21.87689721 14.74440098 23.26994038 C20.34223433 30.98593753 20.97503418 37.10133522 20.79467773 46.4675293 C20.79269868 47.88785198 20.79382039 49.30818181 20.79777527 50.72850037 C20.79976819 54.5506833 20.75887232 58.37130076 20.70975757 62.19312263 C20.66573457 66.19953264 20.66186585 70.20598613 20.65357971 74.21260071 C20.6318996 81.78451103 20.57456206 89.35570639 20.50413328 96.92730314 C20.41095037 107.16940494 20.37341435 117.4117049 20.33261776 127.65412426 C20.2669718 143.76995077 20.12746906 159.8842692 20 176 C-5.74 176 -31.48 176 -58 176 C-56.68 175.01 -55.36 174.02 -54 173 C-52.20698102 171.33979724 -51.09554011 170.19108023 -50 168 C-29.54 168 -9.08 168 12 168 C12.17181247 144.89824954 12.17181247 144.89824954 12.23046875 121.796875 C12.2293865 112.35852799 12.2400002 102.92135451 12.33251953 93.48339844 C12.39988281 86.60568912 12.42367253 79.72934286 12.39809489 72.85132992 C12.38603036 69.2188501 12.39376617 65.5891796 12.4539566 61.95711899 C12.75520228 42.69266975 10.15041437 28.98777495 -1 13 C-1.79767561 11.80544037 -2.59312165 10.60938535 -3.38519287 9.41110229 C-3.91807922 8.61543854 -4.45096558 7.81977478 -5 7 C-3.70700306 4.11562221 -2.34058637 2.12780579 0 0 Z " fill="#4A4B4A" transform="translate(148,23)"/>
<path d="M0 0 C0 19.47 0 38.94 0 59 C-9.24 59 -18.48 59 -28 59 C-28 41.51 -28 24.02 -28 6 C-22.5823207 4.45209163 -17.23941244 3.08986997 -11.75 1.875 C-10.94820312 1.69324219 -10.14640625 1.51148437 -9.3203125 1.32421875 C-8.54945313 1.15277344 -7.77859375 0.98132813 -6.984375 0.8046875 C-6.29053711 0.64983887 -5.59669922 0.49499023 -4.88183594 0.33544922 C-3 0 -3 0 0 0 Z " fill="#3AB54A" transform="translate(138,16)"/>
<path d="M0 0 C5.5 3 5.5 3 7 6 C7.2863278 11.91937425 7.31384619 17.83998057 7.35009766 23.765625 C7.36664046 25.74816643 7.39390835 27.73064862 7.43212891 29.71289062 C7.48701364 32.57453281 7.50879047 35.4347767 7.5234375 38.296875 C7.54610687 39.17833191 7.56877625 40.05978882 7.59213257 40.96795654 C7.57818565 45.04903159 7.37283519 48.15049826 4.96728516 51.54394531 C2 54 2 54 -6 55 C-6 61.93 -6 68.86 -6 76 C-0.72 76 4.56 76 10 76 C10.66 77.32 11.32 78.64 12 80 C15.0334467 81.76727858 15.0334467 81.76727858 18 83 C18 83.33 18 83.66 18 84 C7.11 84 -3.78 84 -15 84 C-15.11305824 74.0640942 -15.20474883 64.12861709 -15.25906086 54.19221306 C-15.28513082 49.57809383 -15.32048088 44.96443831 -15.37719727 40.35058594 C-15.43161055 35.89610374 -15.46144011 31.44206693 -15.47438622 26.98727798 C-15.48360945 25.28960282 -15.50162076 23.59195144 -15.52865028 21.8944664 C-15.56506643 19.51228331 -15.5699404 17.13192934 -15.56762695 14.74951172 C-15.58560333 14.05107651 -15.60357971 13.3526413 -15.62210083 12.63304138 C-15.56362043 7.05041202 -13.80148362 4.78479541 -10 1 C-6.78918322 -0.60540839 -3.48289645 -0.48463309 0 0 Z " fill="#4C4D4D" transform="translate(66,115)"/>
<path d="M0 0 C3.3 0 6.6 0 10 0 C10 7.26 10 14.52 10 22 C11.32 22 12.64 22 14 22 C14 15.07 14 8.14 14 1 C16.97 1 19.94 1 23 1 C23 10.9 23 20.8 23 31 C12.65565695 31.06779186 2.31146158 31.12282541 -8.0330534 31.15543652 C-12.83649134 31.17108864 -17.63976934 31.1923187 -22.44311523 31.22631836 C-27.07911055 31.25892789 -31.71495208 31.27685643 -36.35105324 31.28463173 C-38.11928541 31.29017237 -39.88750923 31.30099191 -41.65567589 31.31719017 C-44.1335096 31.33898578 -46.61070881 31.34196606 -49.08862305 31.34057617 C-49.81870575 31.351362 -50.54878845 31.36214783 -51.30099487 31.3732605 C-55.71685165 31.34647989 -58.48873415 30.71117552 -62 28 C-65.7985767 22.71000815 -65.35229992 17.36204315 -65.1875 11.125 C-65.17396484 10.15046875 -65.16042969 9.1759375 -65.14648438 8.171875 C-65.11132459 5.78100991 -65.05752375 3.39043157 -65 1 C-62.03 1 -59.06 1 -56 1 C-55.67 7.6 -55.34 14.2 -55 21 C-41.47 21 -27.94 21 -14 21 C-13.67 14.4 -13.34 7.8 -13 1 C-10.03 1 -7.06 1 -4 1 C-4 7.93 -4 14.86 -4 22 C-2.68 22 -1.36 22 0 22 C0 14.74 0 7.48 0 0 Z " fill="#4E4E4E" transform="translate(116,78)"/>
<path d="M0 0 C5.2508547 6.9215812 5.2508547 6.9215812 5.24050903 12.40995789 C5.24325836 13.53316437 5.24600769 14.65637085 5.24884033 15.81361389 C5.24164978 17.04647629 5.23445923 18.27933868 5.22705078 19.54956055 C5.22734283 20.84722351 5.22763489 22.14488647 5.22793579 23.48187256 C5.22851028 27.04155397 5.21674046 30.60110096 5.20278788 34.1607511 C5.19029654 37.8803386 5.18911128 41.59992907 5.18673706 45.3195343 C5.18051759 52.36370005 5.16410047 59.40780382 5.14403808 66.45194227 C5.11751662 75.97028158 5.10671021 85.4886378 5.09503365 95.00700474 C5.07622019 110.00471626 5.03637767 125.00229698 5 140 C-15.46 140 -35.92 140 -57 140 C-57 138.68 -57 137.36 -57 136 C-55.20994059 135.63779734 -53.41787943 135.28547531 -51.625 134.9375 C-50.62726563 134.74027344 -49.62953125 134.54304687 -48.6015625 134.33984375 C-46 134 -46 134 -44 135 C-42.62235502 135.09502236 -41.24029158 135.13072832 -39.859375 135.1328125 C-38.62380859 135.13474609 -38.62380859 135.13474609 -37.36328125 135.13671875 C-36.50089844 135.13285156 -35.63851562 135.12898437 -34.75 135.125 C-33.47962891 135.13080078 -33.47962891 135.13080078 -32.18359375 135.13671875 C-27.65422869 135.12967464 -23.4722781 134.76629876 -19 134 C-16.83984375 134.2265625 -16.83984375 134.2265625 -14.9375 134.625 C-11.10948487 135.29269321 -11.10948487 135.29269321 -8.1875 133.875 C-5.02280774 131.16240663 -3.22674268 128.91447331 -2.72155571 124.64899063 C-2.60369023 121.60503623 -2.58660973 118.57408128 -2.59936523 115.52783203 C-2.59238617 114.36791748 -2.5854071 113.20800293 -2.57821655 112.01293945 C-2.55821807 108.17782347 -2.5587399 104.34297603 -2.55859375 100.5078125 C-2.54682341 97.84127666 -2.53369885 95.17478525 -2.51856995 92.50827026 C-2.47763005 84.7660727 -2.45900371 77.02389759 -2.44239807 69.28161621 C-2.42003254 59.43409399 -2.3863812 49.58663764 -2.33519894 39.73922241 C-2.31214692 35.14636062 -2.30551042 30.55363615 -2.30210876 25.96072388 C-2.29233056 23.55079947 -2.28206698 21.14087696 -2.27124023 18.73095703 C-2.27379318 17.64189056 -2.27634613 16.5528241 -2.27897644 15.43075562 C-2.24161762 9.89316498 -1.85841697 5.23056756 0 0 Z " fill="#F7F7F7" transform="translate(155,51)"/>
<path d="M0 0 C0 15.51 0 31.02 0 47 C-9.24 47 -18.48 47 -28 47 C-28 33.47 -28 19.94 -28 6 C-23.75125 5.01 -19.5025 4.02 -15.125 3 C-13.7858252 2.68675781 -12.44665039 2.37351562 -11.06689453 2.05078125 C-10.01614746 1.80714844 -8.96540039 1.56351563 -7.8828125 1.3125 C-6.80402832 1.06113281 -5.72524414 0.80976563 -4.61376953 0.55078125 C-2 0 -2 0 0 0 Z " fill="#0A73BA" transform="translate(82,28)"/>
<path d="M0 0 C0 22.11 0 44.22 0 67 C-0.33 67 -0.66 67 -1 67 C-1 49.51 -1 32.02 -1 14 C-3.64 14 -6.28 14 -9 14 C-9 31.49 -9 48.98 -9 67 C-10.98 67.99 -10.98 67.99 -13 69 C-14 68 -14 68 -14.12025452 65.75376892 C-14.1169236 64.26484886 -14.1169236 64.26484886 -14.11352539 62.74584961 C-14.11344986 61.62476303 -14.11337433 60.50367645 -14.11329651 59.34861755 C-14.10813522 58.1288472 -14.10297394 56.90907684 -14.09765625 55.65234375 C-14.0962413 54.41078018 -14.09482635 53.16921661 -14.09336853 51.89002991 C-14.08870591 48.58394509 -14.07971497 45.27792854 -14.06866455 41.97186279 C-14.05844827 38.6003885 -14.05387045 35.22890717 -14.04882812 31.85742188 C-14.03777395 25.23826225 -14.02101736 18.61913507 -14 12 C-17.3 12 -20.6 12 -24 12 C-24 8.37 -24 4.74 -24 1 C-15.83204491 0.00994484 -8.37441165 0 0 0 Z " fill="#DDDDDD" transform="translate(126,109)"/>
<path d="M0 0 C2.97 0 5.94 0 9 0 C9 21.78 9 43.56 9 66 C6.03 66 3.06 66 0 66 C0 44.22 0 22.44 0 0 Z " fill="#4E4E4E" transform="translate(76,117)"/>
<path d="M0 0 C0.99 0.33 1.98 0.66 3 1 C2.34 1 1.68 1 1 1 C1.16298584 2.15951172 1.32597168 3.31902344 1.49389648 4.51367188 C2.00518977 8.61844779 2.1143489 12.64147326 2.09765625 16.78125 C2.0962413 17.48020386 2.09482635 18.17915771 2.09336853 18.89929199 C2.0878367 21.09957429 2.07529777 23.29974923 2.0625 25.5 C2.05747616 27.00520685 2.05291482 28.51041532 2.04882812 30.015625 C2.03788977 33.67711735 2.02067359 37.33854817 2 41 C2.66 41 3.32 41 4 41 C4 30.11 4 19.22 4 8 C9.61 8 15.22 8 21 8 C21 8.66 21 9.32 21 10 C15.72 10 10.44 10 5 10 C5.33 11.65 5.66 13.3 6 15 C11.61 15 17.22 15 23 15 C23 15.66 23 16.32 23 17 C17.72 17 12.44 17 7 17 C7 25.25 7 33.5 7 42 C8.98 42 10.96 42 13 42 C12.82082031 41.20335937 12.64164063 40.40671875 12.45703125 39.5859375 C10.69811321 30.82332762 10.69811321 30.82332762 12.375 26.25 C12.91125 25.5075 13.4475 24.765 14 24 C14.33 24 14.66 24 15 24 C15 27.63 15 31.26 15 35 C15.66 35 16.32 35 17 35 C16.67 34.34 16.34 33.68 16 33 C15.92966231 31.12620395 15.9156978 29.24998898 15.9375 27.375 C15.94652344 26.37210938 15.95554687 25.36921875 15.96484375 24.3359375 C15.97644531 23.56507812 15.98804687 22.79421875 16 22 C19.62891533 26.40932722 20.24012809 30.71638794 19.83203125 36.296875 C19.59873439 38.20382323 19.30484697 40.10317442 19 42 C20.65 42 22.3 42 24 42 C24.33 33.42 24.66 24.84 25 16 C25.33 16 25.66 16 26 16 C26.495 31.345 26.495 31.345 27 47 C18.09 47 9.18 47 0 47 C0 31.49 0 15.98 0 0 Z " fill="#F25416" transform="translate(82,28)"/>
<path d="M0 0 C0.33 0 0.66 0 1 0 C1 1.98 1 3.96 1 6 C1.99 6.33 2.98 6.66 4 7 C4.02892385 11.12498538 4.04677267 15.24994485 4.0625 19.375 C4.07087891 20.550625 4.07925781 21.72625 4.08789062 22.9375 C4.09272461 24.61972656 4.09272461 24.61972656 4.09765625 26.3359375 C4.10551147 27.89127197 4.10551147 27.89127197 4.11352539 29.47802734 C4 32 4 32 3 34 C1.35 34 -0.3 34 -2 34 C-1.97679688 33.11957031 -1.95359375 32.23914063 -1.9296875 31.33203125 C-1.91164063 30.17058594 -1.89359375 29.00914063 -1.875 27.8125 C-1.85179688 26.66394531 -1.82859375 25.51539062 -1.8046875 24.33203125 C-1.84591832 20.62051442 -1.84591832 20.62051442 -4 16 C-4 19.63 -4 23.26 -4 27 C-4.66 27 -5.32 27 -6 27 C-6.33 24.03 -6.66 21.06 -7 18 C-9.14680135 22.29360269 -9.12524159 23.64777742 -8.625 28.25 C-8.51414062 29.32765625 -8.40328125 30.4053125 -8.2890625 31.515625 C-8.19367188 32.33546875 -8.09828125 33.1553125 -8 34 C-9.98 34 -11.96 34 -14 34 C-14 25.75 -14 17.5 -14 9 C-8.72 9 -3.44 9 2 9 C2 8.34 2 7.68 2 7 C-3.61 7 -9.22 7 -15 7 C-15 15.91 -15 24.82 -15 34 C-15.33 34 -15.66 34 -16 34 C-16 23.44 -16 12.88 -16 2 C-10.72 2 -5.44 2 0 2 C0 1.34 0 0.68 0 0 Z " fill="#FCEBE6" transform="translate(103,36)"/>
<path d="M0 0 C1.32 0.33 2.64 0.66 4 1 C4 1.66 4 2.32 4 3 C5.051875 3.1546875 5.051875 3.1546875 6.125 3.3125 C9 4 9 4 15 7 C15 15.25 15 23.5 15 32 C12.36 30.02 9.72 28.04 7 26 C4.69 25.01 2.38 24.02 0 23 C0 15.41 0 7.82 0 0 Z " fill="#FAFDFB" transform="translate(121,36)"/>
<path d="M0 0 C5.30462144 0.33153884 9.2456412 3.46112316 13 7 C14.23828125 9.19921875 14.23828125 9.19921875 15 11 C10 9 10 9 5 7 C5 6.34 5 5.68 5 5 C4.01 5 3.02 5 2 5 C1.67 12.26 1.34 19.52 1 27 C2.98 27.33 4.96 27.66 7 28 C9.875 29.8125 9.875 29.8125 12 32 C12 33.32 12 34.64 12 36 C12.66 36.66 13.32 37.32 14 38 C3.605 36.515 3.605 36.515 -7 35 C-7 25.76 -7 16.52 -7 7 C-6.01 7 -5.02 7 -4 7 C-4 15.58 -4 24.16 -4 33 C-0.7 33 2.6 33 6 33 C3.03 32.34 0.06 31.68 -3 31 C-3 21.76 -3 12.52 -3 3 C-2.34 3 -1.68 3 -1 3 C-0.67 2.01 -0.34 1.02 0 0 Z " fill="#A3DBAA" transform="translate(120,32)"/>
<path d="M0 0 C0.33 0 0.66 0 1 0 C1 19.14 1 38.28 1 58 C-8.24 58 -17.48 58 -27 58 C-27 40.51 -27 23.02 -27 5 C-26.67 5 -26.34 5 -26 5 C-25.67 10.61 -25.34 16.22 -25 22 C-24.67 22 -24.34 22 -24 22 C-24 31.24 -24 40.48 -24 50 C-21.03 50 -18.06 50 -15 50 C-11.93359375 50.4375 -11.93359375 50.4375 -9.4375 51 C-8.16712891 51.2784375 -8.16712891 51.2784375 -6.87109375 51.5625 C-6.25363281 51.706875 -5.63617188 51.85125 -5 52 C-5.66 51.34 -6.32 50.68 -7 50 C-6.34 50 -5.68 50 -5 50 C-4.67 49.34 -4.34 48.68 -4 48 C-2.68 48.99 -1.36 49.98 0 51 C0 34.17 0 17.34 0 0 Z " fill="#43B752" transform="translate(137,17)"/>
<path d="M0 0 C3.36179774 1.44077046 5.59156268 3.24750021 8 6 C8 6.66 8 7.32 8 8 C8.598125 8.2475 9.19625 8.495 9.8125 8.75 C12.29482087 10.16846907 13.36328035 11.69264738 15 14 C13.716961 16.17221487 12.42427887 18.3375324 11.125 20.5 C10.76019531 21.12003906 10.39539063 21.74007812 10.01953125 22.37890625 C9.0677482 23.95367458 8.03889741 25.48129053 7 27 C6.34 27 5.68 27 5 27 C3.25 24.9375 3.25 24.9375 2 22 C2.8125 18.375 2.8125 18.375 4 15 C4 14.01 4 13.02 4 12 C2.88625 12.12375 2.88625 12.12375 1.75 12.25 C-1 12 -1 12 -3.375 10.25 C-5 8 -5 8 -4.75 5.75 C-4.37875 4.88375 -4.37875 4.88375 -4 4 C-3.34 4 -2.68 4 -2 4 C-1.34 2.68 -0.68 1.36 0 0 Z " fill="#3EB54E" transform="translate(155,15)"/>
<path d="M0 0 C2.125 0.375 2.125 0.375 4 1 C4.02464928 6.25105442 4.04283568 11.50207545 4.05493164 16.75317383 C4.05997218 18.54094021 4.06680454 20.32870245 4.07543945 22.11645508 C4.0875173 24.68051168 4.09323094 27.24451397 4.09765625 29.80859375 C4.10281754 30.6127623 4.10797882 31.41693085 4.11329651 32.24546814 C4.11349215 34.16401715 4.06201983 36.08245368 4 38 C3 39 3 39 0.4375 39.0625 C-0.366875 39.041875 -1.17125 39.02125 -2 39 C-2.04935824 33.76726669 -2.08569949 28.53466824 -2.10986328 23.30175781 C-2.11993431 21.52080933 -2.13359185 19.73987743 -2.15087891 17.95898438 C-2.17507913 15.40230217 -2.18647184 12.84583815 -2.1953125 10.2890625 C-2.20563507 9.49005524 -2.21595764 8.69104797 -2.22659302 7.86782837 C-2.22699226 5.9104278 -2.12241069 3.95356923 -2 2 C-1.34 1.34 -0.68 0.68 0 0 Z " fill="#FAFAFA" transform="translate(61,123)"/>
<path d="M0 0 C0.99 0 1.98 0 3 0 C5.66666667 0 8.33333333 0 11 0 C11 0.66 11 1.32 11 2 C8.36 2 5.72 2 3 2 C3 2.66 3 3.32 3 4 C4.918125 3.938125 4.918125 3.938125 6.875 3.875 C9.0546875 3.8046875 9.0546875 3.8046875 11 4 C11.66 4.66 12.32 5.32 13 6 C14.32 4.35 15.64 2.7 17 1 C20.73639216 2.24546405 21.18756513 3.63404953 23 7 C23.33 4.69 23.66 2.38 24 0 C24.99 0 25.98 0 27 0 C27 2.31 27 4.62 27 7 C28.98 7 30.96 7 33 7 C33 7.66 33 8.32 33 9 C31.23050905 9.10815225 29.45912513 9.18566083 27.6875 9.25 C26.20830078 9.31960937 26.20830078 9.31960937 24.69921875 9.390625 C22 9 22 9 20.14453125 7.109375 C19 5 19 5 19 3 C16.12579877 5.71604715 16.12579877 5.71604715 14 9 C6.41 9 -1.18 9 -9 9 C-9 8.34 -9 7.68 -9 7 C-6.69 7 -4.38 7 -2 7 C-2 6.34 -2 5.68 -2 5 C-4.31 5 -6.62 5 -9 5 C-9.33 3.68 -9.66 2.36 -10 1 C-6.83598119 -0.58200941 -3.46125163 -0.06168567 0 0 Z " fill="#F26B39" transform="translate(109,202)"/>
<path d="M0 0 C3.0625 0.1875 3.0625 0.1875 5.0625 2.1875 C5.29850253 6.35687798 5.04579211 10.13142005 4.0625 14.1875 C-3.6875 14.3125 -3.6875 14.3125 -5.9375 13.1875 C-6.11541204 8.65074303 -5.9836125 5.279725 -3.9375 1.1875 C-2.9375 0.1875 -2.9375 0.1875 0 0 Z " fill="#94C2E1" transform="translate(63.9375,39.8125)"/>
<path d="M0 0 C5.28798109 6.48204134 4.02560591 13.76342312 3.25390625 21.65625 C3.17011719 22.4296875 3.08632812 23.203125 3 24 C1.02 24 -0.96 24 -3 24 C-3.41926796 21.46026173 -3.81071409 18.92109174 -4.1875 16.375 C-4.30802734 15.66214844 -4.42855469 14.94929688 -4.55273438 14.21484375 C-5.26190368 9.22778222 -4.76556604 6.41654627 -2 2 C-1.67 2 -1.34 2 -1 2 C-1 5.63 -1 9.26 -1 13 C-0.34 13 0.32 13 1 13 C0.67 12.34 0.34 11.68 0 11 C-0.07033769 9.12620395 -0.0843022 7.24998898 -0.0625 5.375 C-0.05347656 4.37210938 -0.04445313 3.36921875 -0.03515625 2.3359375 C-0.01775391 1.17964844 -0.01775391 1.17964844 0 0 Z " fill="#F15B29" transform="translate(98,50)"/>
<path d="M0 0 C5.30462144 0.33153884 9.2456412 3.46112316 13 7 C14.23828125 9.19921875 14.23828125 9.19921875 15 11 C11.66666667 9.66666667 8.33333333 8.33333333 5 7 C5 6.34 5 5.68 5 5 C4.01 5 3.02 5 2 5 C1.67 12.26 1.34 19.52 1 27 C2.98 27.33 4.96 27.66 7 28 C9.875 30.5625 9.875 30.5625 12 33 C11.34 32.731875 10.68 32.46375 10 32.1875 C7.61171352 31.2421366 5.21810363 30.32541785 2.8125 29.42578125 C2.09707031 29.15805908 1.38164063 28.89033691 0.64453125 28.61450195 C0.10183594 28.41171631 -0.44085938 28.20893066 -1 28 C-1.02940458 24.83335334 -1.04693315 21.66674253 -1.0625 18.5 C-1.07087891 17.613125 -1.07925781 16.72625 -1.08789062 15.8125 C-1.10763596 10.44176914 -0.78835893 5.31366337 0 0 Z " fill="#7CCB86" transform="translate(120,32)"/>
<path d="M0 0 C0.66 0 1.32 0 2 0 C2 3.96 2 7.92 2 12 C3.65 12.33 5.3 12.66 7 13 C7.66 9.37 8.32 5.74 9 2 C7.35 2 5.7 2 4 2 C3.67 1.34 3.34 0.68 3 0 C5.31 0 7.62 0 10 0 C10.12375 1.175625 10.12375 1.175625 10.25 2.375 C10.69722976 5.09725562 10.69722976 5.09725562 12.75 6 C13.86375 6.495 13.86375 6.495 15 7 C16.70496537 8.62746694 18.37897032 10.28891311 20 12 C16.84343086 13.87055949 14.64314294 14.18682784 11 14 C10.01 14 9.02 14 8 14 C7.67 14.33 7.34 14.66 7 15 C4.27736006 15.28659368 2.62854952 15.4214636 0.31640625 13.87109375 C-1.62970355 11.10496142 -1.07775548 9.11193269 -0.6875 5.8125 C-0.56761719 4.72582031 -0.44773438 3.63914063 -0.32421875 2.51953125 C-0.21722656 1.68808594 -0.11023437 0.85664062 0 0 Z " fill="#C5DAEC" transform="translate(57,55)"/>
<path d="M0 0 C3.3 0 6.6 0 10 0 C10 3.63 10 7.26 10 11 C6.7 11 3.4 11 0 11 C0 7.37 0 3.74 0 0 Z " fill="#616261" transform="translate(116,110)"/>
<path d="M0 0 C1.051875 -0.02126953 1.051875 -0.02126953 2.125 -0.04296875 C4 0.1875 4 0.1875 6 2.1875 C6 3.1775 6 4.1675 6 5.1875 C8.64 5.1875 11.28 5.1875 14 5.1875 C14 6.1775 14 7.1675 14 8.1875 C7.63849395 8.84236092 1.39628979 9.30818471 -5 9.1875 C-5 8.5275 -5 7.8675 -5 7.1875 C-2.69 7.1875 -0.38 7.1875 2 7.1875 C2 6.5275 2 5.8675 2 5.1875 C-0.31 5.1875 -2.62 5.1875 -5 5.1875 C-5.33 3.8675 -5.66 2.5475 -6 1.1875 C-3.77109005 0.07304502 -2.46944894 0.02269714 0 0 Z " fill="#FCEBE5" transform="translate(105,201.8125)"/>
<path d="M0 0 C3.75758262 0.16700367 5.54289422 0.59101062 8.375 3.125 C10.40903664 6.7236802 10.52827016 8.92477304 10 13 C8.5 14.9375 8.5 14.9375 7 16 C6.608125 15.278125 6.21625 14.55625 5.8125 13.8125 C4.07692193 10.86560115 4.07692193 10.86560115 1.3125 8.5 C-1 6 -1 6 -1.375 3.25 C-1 1 -1 1 0 0 Z " fill="#F1F6FA" transform="translate(70,50)"/>
<path d="M0 0 C0.66 0 1.32 0 2 0 C2 1.98 2 3.96 2 6 C3.98 6 5.96 6 8 6 C8 4.02 8 2.04 8 0 C11.63 0 15.26 0 19 0 C19 0.33 19 0.66 19 1 C16.69 1 14.38 1 12 1 C12 1.66 12 2.32 12 3 C14.31 3 16.62 3 19 3 C19 4.65 19 6.3 19 8 C16.02077407 8.02683987 13.04178705 8.04676037 10.0625 8.0625 C8.78729492 8.07506836 8.78729492 8.07506836 7.48632812 8.08789062 C6.67744141 8.09111328 5.86855469 8.09433594 5.03515625 8.09765625 C4.2862915 8.10289307 3.53742676 8.10812988 2.76586914 8.11352539 C1 8 1 8 0 7 C-0.04092937 4.66702567 -0.04241723 2.33294775 0 0 Z " fill="#F5A286" transform="translate(142,215)"/>
<path d="M0 0 C2.97 0 5.94 0 9 0 C9 3.63 9 7.26 9 11 C6.03 11 3.06 11 0 11 C0 7.37 0 3.74 0 0 Z " fill="#535453" transform="translate(130,110)"/>
<path d="M0 0 C3.35915158 1.43963639 5.71624938 3.12416589 8 6 C7.75 8.25 7.75 8.25 7 10 C6.34 10 5.68 10 5 10 C5 10.66 5 11.32 5 12 C1.3586795 12.33102914 -0.41472925 12.42019439 -3.4375 10.25 C-5 8 -5 8 -4.75 5.75 C-4.37875 4.88375 -4.37875 4.88375 -4 4 C-3.34 4 -2.68 4 -2 4 C-1.34 2.68 -0.68 1.36 0 0 Z " fill="#F05F29" transform="translate(155,15)"/>
<path d="M0 0 C2.97 0 5.94 0 9 0 C9 3.3 9 6.6 9 10 C6.03 10 3.06 10 0 10 C0 6.7 0 3.4 0 0 Z " fill="#4C4D4D" transform="translate(103,111)"/>
<path d="M0 0 C2.97 0 5.94 0 9 0 C9 3.3 9 6.6 9 10 C6.03 10 3.06 10 0 10 C0 6.7 0 3.4 0 0 Z " fill="#4A4A4A" transform="translate(83,79)"/>
<path d="M0 0 C2.97 0 5.94 0 9 0 C9 3.3 9 6.6 9 10 C6.03 10 3.06 10 0 10 C0 6.7 0 3.4 0 0 Z " fill="#4C4C4C" transform="translate(73,79)"/>
<path d="M0 0 C3.3 0 6.6 0 10 0 C10 2.31 10 4.62 10 7 C11.98 7 13.96 7 16 7 C16 7.33 16 7.66 16 8 C10.72 8 5.44 8 0 8 C0 5.36 0 2.72 0 0 Z " fill="#F39C80" transform="translate(64,215)"/>
<path d="M0 0 C5.61 0 11.22 0 17 0 C18 4 18 4 18 8 C17.34 8 16.68 8 16 8 C15.67 6.68 15.34 5.36 15 4 C13.68 4 12.36 4 11 4 C11 5.32 11 6.64 11 8 C10.34 8 9.68 8 9 8 C9 5.69 9 3.38 9 1 C7.68 1 6.36 1 5 1 C5 3.31 5 5.62 5 8 C4.34 8 3.68 8 3 8 C3 5.69 3 3.38 3 1 C2.01 0.67 1.02 0.34 0 0 Z " fill="#F18461" transform="translate(123,215)"/>
<path d="M0 0 C2.97 0 5.94 0 9 0 C9 2.64 9 5.28 9 8 C6.03 8 3.06 8 0 8 C0 5.36 0 2.72 0 0 Z " fill="#F47F53" transform="translate(51,203)"/>
<path d="M0 0 C4.95 0 9.9 0 15 0 C15 2.64 15 5.28 15 8 C18.465 7.505 18.465 7.505 22 7 C22.33 5.02 22.66 3.04 23 1 C23.33 1 23.66 1 24 1 C24.04241723 3.33294775 24.04092937 5.66702567 24 8 C23 9 23 9 20.96875 9.1328125 C20.1540625 9.13023437 19.339375 9.12765625 18.5 9.125 C17.6853125 9.12757813 16.870625 9.13015625 16.03125 9.1328125 C14 9 14 9 13 8 C12.95919217 6.00041636 12.95745644 3.99954746 13 2 C11.35 2 9.7 2 8 2 C8 4.31 8 6.62 8 9 C7.67 9 7.34 9 7 9 C7 6.69 7 4.38 7 2 C5.35 2 3.7 2 2 2 C1.67 4.31 1.34 6.62 1 9 C0.67 9 0.34 9 0 9 C0 6.03 0 3.06 0 0 Z " fill="#F27041" transform="translate(74,202)"/>
<path d="M0 0 C0.33 0 0.66 0 1 0 C1 1.98 1 3.96 1 6 C-4.61 6 -10.22 6 -16 6 C-16 4.68 -16 3.36 -16 2 C-10.72 2 -5.44 2 0 2 C0 1.34 0 0.68 0 0 Z " fill="#F7B39D" transform="translate(103,36)"/>
<path d="M0 0 C1.98 1.65 3.96 3.3 6 5 C4.02 7.31 2.04 9.62 0 12 C-1.65 10.35 -3.3 8.7 -5 7 C-3.70700306 4.11562221 -2.34058637 2.12780579 0 0 Z " fill="#0270BB" transform="translate(148,23)"/>
<path d="M0 0 C0.9075 0.804375 1.815 1.60875 2.75 2.4375 C5.10309908 4.41142671 6.86938046 5.63877467 10 6 C11.41004294 10.9351503 10.21701873 13.56596254 8 18 C7.15885829 16.56705502 6.32734313 15.12845595 5.5 13.6875 C5.0359375 12.88699219 4.571875 12.08648437 4.09375 11.26171875 C3 9 3 9 3 6 C2.505 5.505 2.01 5.01 1.5 4.5 C1.005 4.005 0.51 3.51 0 3 C0 2.01 0 1.02 0 0 Z " fill="#E7E4E4" transform="translate(149,21)"/>
<path d="M0 0 C0.99 0.33 1.98 0.66 3 1 C3 9.58 3 18.16 3 27 C2.01 27 1.02 27 0 27 C0 18.09 0 9.18 0 0 Z " fill="#BDE6C3" transform="translate(117,35)"/>
<path d="M0 0 C5.88502111 1.32412975 9.96089209 4.6533458 14 9 C14 9.66 14 10.32 14 11 C9 9 9 9 4 7 C4 6.34 4 5.68 4 5 C2.68 4.67 1.36 4.34 0 4 C0 2.68 0 1.36 0 0 Z " fill="#ACDFB3" transform="translate(121,32)"/>
<path d="M0 0 C0 0.66 0 1.32 0 2 C-2.64 2 -5.28 2 -8 2 C-8 2.66 -8 3.32 -8 4 C-5.36 4 -2.72 4 0 4 C-0.33 5.65 -0.66 7.3 -1 9 C-3.64 9 -6.28 9 -9 9 C-9 8.34 -9 7.68 -9 7 C-6.69 7 -4.38 7 -2 7 C-2 6.34 -2 5.68 -2 5 C-4.31 5 -6.62 5 -9 5 C-9.33 3.68 -9.66 2.36 -10 1 C-6.78548731 -0.60725635 -3.56387464 -0.05748185 0 0 Z " fill="#F48056" transform="translate(109,202)"/>
<path d="M0 0 C1.65 1.32 3.3 2.64 5 4 C4.1875 6.9375 4.1875 6.9375 3 10 C2.01 10.33 1.02 10.66 0 11 C-1.625 8.8125 -1.625 8.8125 -3 6 C-2.33719617 3.56971928 -1.7989028 1.7989028 0 0 Z " fill="#4D4F4D" transform="translate(160,31)"/>
<path d="M0 0 C6.15234375 -0.09765625 6.15234375 -0.09765625 8 0 C8.33 0.33 8.66 0.66 9 1 C8.71269945 3.33944736 8.38063221 5.6739143 8 8 C7.34 6.68 6.68 5.36 6 4 C4.68 4 3.36 4 2 4 C2 5.32 2 6.64 2 8 C1.34 8 0.68 8 0 8 C0 5.36 0 2.72 0 0 Z " fill="#F28B68" transform="translate(99,215)"/>
<path d="M0 0 C3.81684226 1.55500981 6.19195732 4.03595495 9 7 C5.86501708 8.85776765 3.62528568 9.20140476 0 9 C-1.53445094 5.93109813 -0.54984289 3.29905734 0 0 Z " fill="#E9F1F8" transform="translate(68,60)"/>
<path d="M0 0 C3.52675661 0.79047993 5.79587344 1.5834912 8.625 3.8125 C8.625 4.8025 8.625 5.7925 8.625 6.8125 C9.285 7.4725 9.945 8.1325 10.625 8.8125 C4.685 7.8225 4.685 7.8225 -1.375 6.8125 C-0.055 5.8225 1.265 4.8325 2.625 3.8125 C-1.83 2.8225 -1.83 2.8225 -6.375 1.8125 C-3.375 -0.1875 -3.375 -0.1875 0 0 Z " fill="#A2DBAA" transform="translate(123.375,61.1875)"/>
<path d="M0 0 C0.99 0 1.98 0 3 0 C3 2.31 3 4.62 3 7 C4.98 7 6.96 7 9 7 C9 7.66 9 8.32 9 9 C5.7 9 2.4 9 -1 9 C-0.67 6.03 -0.34 3.06 0 0 Z " fill="#F59B77" transform="translate(133,202)"/>
<path d="M0 0 C0.99 0.33 1.98 0.66 3 1 C2.52433594 1.84304687 2.52433594 1.84304687 2.0390625 2.703125 C0.93125475 5.15196317 0.61024601 7.08387855 0.375 9.75 C0.30023438 10.54921875 0.22546875 11.3484375 0.1484375 12.171875 C0.09945312 12.77515625 0.05046875 13.3784375 0 14 C-0.99 13.67 -1.98 13.34 -3 13 C-3.17791204 8.46324303 -3.0461125 5.092225 -1 1 C-0.67 0.67 -0.34 0.34 0 0 Z " fill="#83B4DA" transform="translate(61,40)"/>
<path d="M0 0 C0.66 0 1.32 0 2 0 C2 1.98 2 3.96 2 6 C3.98 6 5.96 6 8 6 C8 4.02 8 2.04 8 0 C8.33 0 8.66 0 9 0 C9 2.64 9 5.28 9 8 C2.84765625 8.09765625 2.84765625 8.09765625 1 8 C0 7 0 7 -0.0625 3.4375 C-0.041875 2.303125 -0.02125 1.16875 0 0 Z " fill="#EE7651" transform="translate(142,215)"/>
<path d="M0 0 C2.88437779 1.29299694 4.87219421 2.65941363 7 5 C7.99 4.34 8.98 3.68 10 3 C9.34 4.65 8.68 6.3 8 8 C4.125 6.125 4.125 6.125 3 5 C2.67 5.99 2.34 6.98 2 8 C1.34 8 0.68 8 0 8 C0 5.36 0 2.72 0 0 Z " fill="#F17043" transform="translate(155,203)"/>
<path d="M0 0 C1.32 0.33 2.64 0.66 4 1 C4 1.66 4 2.32 4 3 C5.65 3.33 7.3 3.66 9 4 C8.34 4.66 7.68 5.32 7 6 C4.69 5.34 2.38 4.68 0 4 C0 2.68 0 1.36 0 0 Z " fill="#DEF1E0" transform="translate(121,36)"/>
<path d="M0 0 C5.52628901 1.19194469 8.17819158 2.5991297 12 7 C11.319375 6.71125 10.63875 6.4225 9.9375 6.125 C6.67106907 4.87402645 3.37153877 3.92552045 0 3 C0 2.01 0 1.02 0 0 Z " fill="#42B953" transform="translate(120,58)"/>
<path d="M0 0 C0.66 0 1.32 0 2 0 C2 3.63 2 7.26 2 11 C-0.7865517 8.2134483 -0.65662895 5.84575573 -1 2 C-0.67 1.34 -0.34 0.68 0 0 Z " fill="#F26B40" transform="translate(94,56)"/>
<path d="M0 0 C2.69082872 0.17635452 5.32851446 0.61835921 8 1 C8 1.66 8 2.32 8 3 C5.69 3 3.38 3 1 3 C0.67 3.66 0.34 4.32 0 5 C-0.5625 3.0625 -0.5625 3.0625 -1 1 C-0.67 0.67 -0.34 0.34 0 0 Z " fill="#FCF6F4" transform="translate(99,206)"/>
<path d="M0 0 C1.98 0 3.96 0 6 0 C6.33 1.32 6.66 2.64 7 4 C4.69 3.67 2.38 3.34 0 3 C0 2.01 0 1.02 0 0 Z " fill="#F9CDBF" transform="translate(110,219)"/>
<path d="M0 0 C0 0.66 0 1.32 0 2 C1.32 2.66 2.64 3.32 4 4 C-1.94 3.01 -1.94 3.01 -8 2 C-4 0 -4 0 0 0 Z " fill="#8AD193" transform="translate(130,66)"/>
<path d="M0 0 C1.98 0 3.96 0 6 0 C6 0.99 6 1.98 6 3 C4.02 3 2.04 3 0 3 C0 2.01 0 1.02 0 0 Z " fill="#FCE4DC" transform="translate(53,207)"/>
<path d="M0 0 C2 1.3125 2 1.3125 4 3 C4 3.99 4 4.98 4 6 C1.00667261 5.0022242 0.05233685 4.2477975 -2 2 C-1.34 2 -0.68 2 0 2 C0 1.34 0 0.68 0 0 Z " fill="#5BC069" transform="translate(132,65)"/>
</svg>
